<svg xmlns="http://www.w3.org/2000/svg" width="12" height="10.328" viewBox="0 0 12 10.328">
  <path id="Path_31" data-name="Path 31" d="M291.907,242.469a3.437,3.437,0,0,1,1.927-1.155A3.392,3.392,0,0,1,297.9,244.8a4.746,4.746,0,0,1-1.215,2.787,19.349,19.349,0,0,1-3.539,3.16c-.364.265-.742.508-1.109.769a.192.192,0,0,1-.253,0,29.1,29.1,0,0,1-2.743-2.041,15.211,15.211,0,0,1-2.012-2.009,4.645,4.645,0,0,1-1.089-2.355,3.257,3.257,0,0,1,1.36-3.215,3.357,3.357,0,0,1,4.508.463Z" transform="translate(-285.905 -241.238)" fill="#fff"/>
</svg>
